PathFileType	4	(X/Y/Z)	F:\MotionCapture\20160217\3\Generated_files\EMG_test02-Dynamic.trc
DataRate	CameraRate	NumFrames	NumMarkers	Units	OrigDataRate	OrigDataStartFrame	OrigNumFrames
120.00	120.00	       4	39	mm	120.00	85	       679
Frame#	Time	Top.Head			Front.Head			Rear.Head			R.Shoulder			R.Offset			R.Elbow			R.Wrist			L.Shoulder			L.Elbow			L.Wrist			R.ASIS			L.ASIS			V.Sacral			R.Thigh			R.Knee			R.Shank			R.Ankle			R.Heel			R.Toe			L.Thigh			L.Knee			L.Shank			L.Ankle			L.Heel			L.Toe			R1			R2			R3			R4			R5			R6			R7			L1			L2			L3			L4			L5			L6			L7			V_Mid_ASIS			V_Pelvis_Origin			V_R.Hip_JC			V_L.Hip_JC			V_R.Knee_JC			V_L.Knee_JC			V_R.Ankle_JC			V_L.Ankle_JC			V_Mid_Hip			V_Mid_Shoulder			V_R.Hand			V_L.Hand			V_R.Toe_Offset_Static			V_L.Toe_Offset_Static			V_R.Toe_Offset			V_L.Toe_Offset			
		X1	Y1	Z1	X2	Y2	Z2	X3	Y3	Z3	X4	Y4	Z4	X5	Y5	Z5	X6	Y6	Z6	X7	Y7	Z7	X8	Y8	Z8	X9	Y9	Z9	X10	Y10	Z10	X11	Y11	Z11	X12	Y12	Z12	X13	Y13	Z13	X14	Y14	Z14	X15	Y15	Z15	X16	Y16	Z16	X17	Y17	Z17	X18	Y18	Z18	X19	Y19	Z19	X20	Y20	Z20	X21	Y21	Z21	X22	Y22	Z22	X23	Y23	Z23	X24	Y24	Z24	X25	Y25	Z25	X26	Y26	Z26	X27	Y27	Z27	X28	Y28	Z28	X29	Y29	Z29	X30	Y30	Z30	X31	Y31	Z31	X32	Y32	Z32	X33	Y33	Z33	X34	Y34	Z34	X35	Y35	Z35	X36	Y36	Z36	X37	Y37	Z37	X38	Y38	Z38	X39	Y39	Z39	

85	0.700	3184.40771	110.81087	1730.60266	3077.86475	95.15458	1642.27710	3295.49121	128.04073	1666.80115										3218.33423	429.07339	863.12579	3212.27539	-96.57433	1421.49219	3172.84277	-163.23395	1088.05090	3035.00830	-86.57653	884.39539				3158.00098	-29.10100	946.81268				3096.95093	243.23561	581.24658	3159.00879	284.22733	468.35535	3210.15845	218.79942	233.83051	3303.15625	284.84811	87.76038	3365.55859	218.09360	57.04369	3164.83008	289.43713	60.31553	3157.34277	19.79616	619.40686	3261.51563	-33.74991	468.96088	3270.86938	43.01757	327.28119	3376.32837	-17.31226	71.70249	3437.84302	44.39632	52.26503	3236.91870	-21.22336	53.69851	3114.51123	275.09796	54.52730	3152.96387	255.23909	64.74194	3244.49219	206.60112	67.83646	3314.98804	193.58963	53.61895	3341.83643	265.23334	60.91762	3268.67432	299.86880	47.24443	3207.37207	321.85428	53.48946	3192.88965	3.21780	52.34342	3223.67212	15.97371	56.94955				3396.34790	73.24775	52.73809	3415.03296	-0.54128	54.46202	3341.41626	-29.34194	38.69001	3278.70752	-45.30821	45.33014																																																	3363.59058	-47.36395	-98.31857	3372.27222	463.85666	1166.05994	3240.10107	-12.48057	-73.35569	
86	0.708	3182.07813	112.18924	1729.99146	3075.26685	97.58607	1642.02344	3293.20435	128.50961	1666.51013	3253.94116	310.99426	1424.85925				3306.82935	411.11441	1106.49329	3219.56421	429.67999	862.31049	3208.98804	-95.06850	1421.56812	3169.13696	-161.72852	1087.93799	3029.53052	-83.36411	885.14746	3171.45581	261.23813	947.19788	3157.49756	-28.26045	946.10236				3095.69092	242.45752	580.94946	3157.89697	283.94498	467.70691	3209.64087	217.85655	233.86623	3304.60986	290.55981	90.06136	3365.65356	217.93791	57.42451	3164.09058	288.77936	59.98550				3260.88110	-33.09219	468.84644	3270.16016	43.50052	327.09933	3376.47656	-17.49944	71.71855	3438.14331	44.03303	52.31929	3237.02319	-21.20391	53.55942	3114.40210	274.98499	56.00887	3152.52466	254.65155	64.55783	3244.82715	206.67097	67.38103	3315.21484	193.85762	53.25445	3341.20630	264.28922	59.62363	3270.20093	301.32867	47.92525	3207.27295	321.88760	53.23750	3193.16577	3.35766	52.64168	3223.94580	16.03557	57.11760				3396.40234	73.03702	52.66834	3415.18823	-0.55718	54.34612	3341.50806	-29.39595	38.57963	3278.78369	-45.35128	45.22891																																																	3363.67871	-47.52433	-98.14690	3240.42065	-12.48111	-72.97734	3355.59619	138.82864	457.87698	
87	0.717	3179.30908	113.49327	1729.67444	3072.46118	98.67554	1641.54944	3290.58789	129.48117	1666.19263	3257.50708	314.62476	1423.79419				3308.09497	413.35184	1107.01147	3221.12573	430.19827	861.61444	3206.10205	-93.42805	1421.29175	3165.74512	-159.88681	1087.38049	3024.06616	-80.39906	886.94318	3169.39893	263.15796	946.87213	3154.04565	-25.98982	945.46991				3094.80737	242.18295	579.90509	3156.67700	284.51450	466.99222	3209.68530	217.96156	233.55305	3304.50806	290.73245	89.38284	3365.72192	218.78090	56.14448	3164.88257	287.36246	60.17400	3153.35547	22.79950	618.64355	3259.99731	-31.93382	468.53006	3269.99097	43.57185	326.96722	3376.55151	-17.51707	71.67494	3438.34326	43.85741	52.14767	3237.19263	-21.18046	53.53413	3114.50098	273.90576	56.14133	3153.07788	254.40053	64.18601	3245.69409	208.23883	66.76353				3341.25635	264.61557	59.04051				3206.93457	321.52545	53.21182	3193.35815	3.37263	52.85685	3224.21997	16.11133	57.13305				3396.60205	73.06985	52.76287	3415.43408	-0.63159	54.13108	3341.65894	-29.51804	38.63341	3278.85278	-45.56561	45.09135																																																	3240.83179	-12.42795	-72.63898	3355.05005	138.71793	457.73911	
88	0.725	3176.47070	115.19910	1729.98096	3069.86597	101.67248	1640.97510	3287.93213	130.31854	1665.92981	3250.49463	314.57950	1423.57251				3307.98657	414.77832	1106.89417	3222.54785	431.18018	860.37488	3202.82104	-91.71543	1421.17261	3161.81958	-157.56042	1087.39856	3018.45923	-77.45707	888.94220	3167.27539	264.73767	946.88391	3151.21460	-24.48883	945.48090	3383.76270	111.45798	949.15063	3093.75513	241.60414	579.41846	3155.85596	283.39847	466.48422	3209.58789	217.59535	233.70364	3302.69043	286.17871	86.99482	3366.23340	219.87448	56.13840	3164.54907	288.39999	59.92627	3152.38452	22.82455	617.42407	3259.15112	-31.04628	468.37381	3269.40845	43.70201	326.76865	3376.90161	-19.25194	73.11716	3438.47974	43.62023	52.29052	3237.37109	-21.03765	53.58735	3114.70557	273.29147	56.47947	3153.32373	253.88426	64.05213	3245.99976	208.17406	66.00697	3316.02539	194.23386	52.70013	3341.83545	267.37460	59.21097				3206.59619	321.33746	53.09832	3193.61377	3.44426	53.06162	3224.49927	16.08956	57.24189				3396.60742	72.87646	52.98875	3415.68164	-0.76374	54.09624	3341.76538	-29.56202	38.38892	3279.80005	-51.10820	48.58437																																																	3237.24927	-18.43233	-77.84515	3354.27002	138.60196	457.46088	3391.62915	94.42158	35.90255	4865.41113	-335.95004	1673.54907	
